<?xml version="1.0" encoding="utf-8"?>
<!-- Generator: Adobe Illustrator 27.6.1, SVG Export Plug-In . SVG Version: 6.00 Build 0)  -->
<svg version="1.1" id="Layer_1" xmlns="http://www.w3.org/2000/svg" xmlns:xlink="http://www.w3.org/1999/xlink" x="0px" y="0px"
	 viewBox="0 0 2000 2000" style="enable-background:new 0 0 2000 2000;" xml:space="preserve">
<style type="text/css">
	.st0{display:none;fill:#2D2D2D;}
	.st1{fill:#4A6CF7;}
	.st2{fill:#606060;}
	.st3{fill:#008422;}
	.st4{display:none;}
	.st5{display:inline;fill:#FFFFFF;}
	.st6{display:inline;}
	.st7{fill:#FFFFFF;}
</style>
<rect class="st0" width="2000" height="2000"/>
<path class="st1" d="M1746.7,975.47c-1.73-0.52-3.71-0.21-5.58-0.21c-25.02,0.07-50.04,0.17-75.05,0.18
	c-6.56,0-13.12-0.29-19.68-0.42c-5.11-0.1-8.61,2.1-11.57,6.47c-8.25,12.18-17.07,23.97-25.48,36.05c-2.52,3.62-5.27,5.64-9.96,5.62
	c-27.55-0.16-55.11-0.12-82.66,0.01c-4.55,0.02-7.55-1.7-10.14-5.38c-14.97-21.24-30.01-42.44-45.27-63.47
	c-3.12-4.3-2.9-7.26,0.22-11.54c14.75-20.24,29.23-40.69,43.54-61.24c3.58-5.14,7.71-7.32,14.05-7.25
	c25.99,0.3,51.98,0.35,77.96,0.02c6.48-0.08,10.37,2.34,13.82,7.5c7.31,10.92,15.38,21.35,22.61,32.32c3.84,5.83,8.24,8.2,15.41,8.1
	c29.74-0.41,59.49-0.12,89.24-0.22c3.29-0.01,6.58-0.88,9.87-1.36c-1.43-3.02-2.5-6.27-4.33-9.02
	c-26.47-39.93-53.18-79.69-79.43-119.76c-3.93-6-8.03-8.25-15.16-8.22c-59.18,0.29-118.36,0.43-177.54-0.04
	c-10.5-0.08-17.06,2.79-22.86,11.88c-15.17,23.74-31.5,46.73-47.31,70.06c-2.92,4.32-5.94,7.26-11.97,7.23
	c-57.93-0.21-115.85-0.07-173.78-0.12c-7.86-0.01-8.01-0.32-5.06-8.02c14.19-37.15,28.5-74.24,42.63-111.41
	c3.88-10.2,7.29-20.58,10.91-30.87l0,0c0.16-0.6,0.31-1.21,0.47-1.81c-0.21,0.56-0.42,1.12-0.62,1.68c0,0,0.04,0.04,0.08,0.07
	l-0.08-0.07c-1.59,1.87-3.44,3.57-4.72,5.63c-29.26,47.44-58.44,94.92-87.66,142.38c-17.23,28-34.54,55.95-51.72,83.98
	c-4.84,7.91-4.53,8.35,4.96,8.39c27.01,0.13,54.01,0.01,81.02,0.01c-2.67,2.91-4.21,4.76-5.93,6.43
	c-33.63,32.79-67.33,65.49-100.9,98.34c-39.16,38.33-78.18,76.8-117.3,115.17c-25.26,24.77-50.67,49.39-75.85,74.24
	c-13.47,13.3-26.59,26.95-39.87,40.45c1.8-0.89,3.73-1.61,5.3-2.8c57.85-43.91,115.68-87.85,173.49-131.81
	c57.57-43.77,115.15-87.54,172.65-131.4c5.38-4.11,10.71-6.65,17.89-6.61c50.72,0.3,101.45,0.28,152.17,0.03
	c6.75-0.03,10.77,2.28,14.47,7.85c16.48,24.76,33.53,49.15,50.06,73.87c3.51,5.25,7.39,7.35,13.8,7.32
	c61.06-0.22,122.12-0.23,183.17,0.06c7.18,0.03,11.33-2.4,15.2-8.3c26.67-40.55,53.69-80.88,80.6-121.28
	c1.21-1.82,2.65-3.58,3.4-5.59C1748.54,977.84,1747.51,975.71,1746.7,975.47z"/>
<path class="st2" d="M979.05,1033.39c-12.33,32.83-24.72,65.63-37.08,98.44c-6.36,16.87-12.69,33.75-19.04,50.63
	c2.51-1.38,3.86-3.33,5.1-5.36c41.47-68.22,82.95-136.44,124.36-204.7c1.73-2.86,2.91-6.06,4.34-9.1c-3.5-0.7-6.99-1.97-10.5-1.99
	c-25.36,0-50.72-0.12-76.08-0.23c-1.69-0.01-3.38-0.88-5.07-1.36c0.89-1.54,1.51-3.33,2.71-4.58c9.57-9.91,19.17-19.78,28.9-29.53
	c97.96-98.22,195.95-196.41,293.9-294.63c1.88-1.88,3.44-4.08,5.12-6.15c-2.59,1.37-5.37,2.5-7.69,4.24
	c-37.61,28.11-75.14,56.33-112.73,84.47c-67.67,50.65-135.42,101.18-202.96,152c-6.59,4.96-13.06,7.44-21.4,7.39
	c-49.78-0.29-99.56-0.29-149.34,0.06c-7.67,0.05-15.8,1.21-22.88,3.98c-18.54,7.26-28.34,22.02-31.07,41.4
	c-0.68,4.81-2.4,6.66-7.03,6.33c-1.86-0.13-3.75,0.18-5.63,0.18c-31.31,0.04-62.62-0.03-93.93,0.16c-5.34,0.03-9.6-1.43-13.62-4.94
	c-16.27-14.2-32.84-28.05-48.98-42.39c-3.9-3.46-7.1-3.87-11.74-2.07c-40.85,15.86-81.74,31.62-122.71,47.16
	c-5.29,2.01-7.23,4.97-7.06,10.45c0.29,9.7,0.04,19.42,0.1,29.12c0.05,9.21,0.06,9.3,9,12.74c38.55,14.86,77.24,29.37,115.6,44.71
	c8.6,3.44,14.29,2.27,20.88-3.75c14.09-12.86,28.83-25.01,43.28-37.48c4.1-3.54,8.29-6.14,14.2-6.1c32.87,0.24,65.75,0.22,98.62,0.1
	c5.46-0.02,8.09,1.2,9.37,7.4c6.34,30.57,24.29,44.68,55.61,44.73c18.47,0.03,36.95,0.02,55.42,0.02
	c37.88,0.01,75.77-0.01,113.65,0.05C982.14,1024.8,982.23,1024.95,979.05,1033.39z"/>
<path class="st2" d="M412.46,1245.15c-28.08,0.38-56.16,0.55-84.24,0.92c-4.95,0.06-7.1-1.76-7.36-6.31
	c-0.04-9.06-0.09-18.13-0.09-27.19c0-8.05,0.18-8.21,8.13-8.22c23.9-0.03,47.79-0.14,71.69,0.08c5.73,0.05,8.53-1.26,8.22-7.71
	c-0.05-1.03-0.08-2.07-0.12-3.11c0-4.06-0.06-8.13-0.09-12.19c0.03-4.06,0.09-8.13,0.09-12.19c0.03-1.04,0.07-2.07,0.12-3.11
	c0.31-6.44-2.49-7.76-8.22-7.71c-23.89,0.22-47.79,0.11-71.69,0.08c-7.96-0.01-8.14-0.17-8.13-8.22c0-9.06,0.05-18.13,0.09-27.19
	c0.26-4.55,2.42-6.38,7.36-6.31c28.08,0.37,56.16,0.54,84.24,0.92c6.17,0.08,7.93-1.21,8.11-7.46c0.34-11.25,0.75-22.5,0.71-33.75
	c-0.01-1.57-2.28-4.37-3.7-4.5c-6.57-0.63-13.22-0.65-19.84-0.66c-41.6-0.04-83.19-0.02-124.79-0.02
	c-10.33,0-10.68,0.19-10.71,10.84c-0.01,4.26-0.01,8.52-0.01,12.77c-0.08,0.67-0.12,1.41-0.11,2.22c0.04,7.07,0.07,14.13,0.09,21.2
	c0,17.98,0.01,35.95,0.01,53.93c0,3.05,0,6.1,0,9.15c0,3.05,0,6.1,0,9.15c0,17.98-0.01,35.95-0.01,53.93
	c-0.02,7.07-0.04,14.13-0.09,21.2c-0.01,0.82,0.03,1.55,0.11,2.22c0.01,4.26,0,8.52,0.01,12.77c0.03,10.64,0.39,10.83,10.71,10.84
	c41.6,0,83.19,0.02,124.79-0.02c6.62-0.01,13.26-0.03,19.84-0.66c1.42-0.14,3.69-2.93,3.7-4.5c0.04-11.25-0.37-22.5-0.71-33.75
	C420.39,1246.36,418.63,1245.07,412.46,1245.15z"/>
<path class="st2" d="M1128.04,1261.76c0-33.13-0.07-66.25,0.04-99.38c0.04-11.74,0.43-11.95,11.81-11.95
	c45.87,0,91.73-0.03,137.6,0.02c7.3,0.01,14.62,0.03,21.87,0.72c1.57,0.15,4.07,3.23,4.08,4.96c0.04,12.4-0.41,24.81-0.78,37.21
	c-0.21,6.9-2.14,8.32-8.95,8.23c-30.96-0.42-61.93-0.61-92.9-1.01c-5.92-0.08-8.21,2.29-8.15,8.29c0.09,9-0.71,18-0.89,27
	c-0.21,10.11,1.08,11.27,11.13,11.27c25.62-0.01,51.23-0.02,76.85-0.02c8.92,0,9.76,0.78,9.8,9.46c0.05,10.72-0.38,21.45,0.13,32.14
	c0.34,7.1-2.75,8.55-9.07,8.5c-26.35-0.24-52.7-0.12-79.05-0.09c-8.77,0.01-8.97,0.19-8.97,9.06c0.01,18.27,0.19,36.53,0.16,54.8
	c-0.02,10.61-1.69,12.15-12.41,12.16c-14.64,0.02-29.28-0.23-43.91,0.11c-6.4,0.15-8.53-2.14-8.49-8.47
	C1128.15,1330.44,1128.03,1296.1,1128.04,1261.76z"/>
<path class="st3" d="M1488.19,1199.16c4.04-0.05,8.08-0.1,12.12-0.16c10.41-0.14,20.61-1.62,27.75,7.54
	c4.74,6.09,6.22,6.05,10.69-0.3c10.23-14.55,20.7-28.96,30.07-44.05c5.23-8.44,11.19-12.31,21.3-11.82
	c9.54,0.46,19.09,0.46,28.64,0.41c1.32-0.01,24,0.22,23.64,1.22c-0.7,1.94-0.98,4.18-2.15,5.77
	c-27.47,37.55-55.01,75.05-82.59,112.52c-6.2,8.42-12.6,16.7-18.88,25.07c-6.2,8.27-9.08,8.1-15.29-0.26
	c-19.46-26.21-39.02-52.34-58.63-78.44c-2.33-3.1-5.36-5.66-7.8-8.69c-1.29-1.61-2-3.68-2.98-5.55c2.1-0.94,4.18-2.62,6.31-2.69
	C1469.65,1199.43,1478.92,1199.28,1488.19,1199.16z"/>
<path class="st2" d="M1330.29,1310.03c0-18.02,0.22-36.05-0.12-54.07c-0.12-6.45,2.55-8.81,8.56-8.79
	c15.86,0.05,31.72,0.04,47.58-0.04c5.78-0.03,8.48,2.57,8.44,8.41c-0.17,26.52-0.27,53.05-0.31,79.57
	c-0.02,9.97-0.01,19.95,0.36,29.92c0.22,6-2.17,8.26-8.15,8.18c-16.34-0.22-32.7-0.25-49.04,0.04c-5.79,0.1-7.65-2.04-7.58-7.68
	c0.24-18.51,0.09-37.02,0.09-55.53C1330.19,1310.03,1330.24,1310.03,1330.29,1310.03z"/>
<path class="st2" d="M1450.35,1373.07c-9.51,0.01-19.01,0.06-28.52,0c-6.05-0.04-7.19-1.74-3.79-6.85
	c5.25-7.89,11.11-15.38,16.66-23.07c10.6-14.7,21.42-29.25,31.87-44.05c5.1-7.22,10.04-14.54,14.95-21.89
	c4.14-6.2,6.84-4.29,11.04,1.11c8.95,11.53,17.5,23.38,26.24,35.08c3.19,4.27,2.94,8.03-0.25,12.54
	c-7.5,10.59-14.76,21.35-21.74,32.29c-5.47,8.58-11.15,15.13-22.14,14.97C1466.56,1373.07,1458.46,1373.05,1450.35,1373.07z"/>
<path class="st2" d="M1613.23,1373.07c9.51,0.01,19.01,0.06,28.52,0c6.05-0.04,7.19-1.74,3.79-6.85
	c-5.25-7.89-11.11-15.38-16.66-23.07c-10.6-14.7-21.42-29.25-31.88-44.05c-5.1-7.22-10.04-14.54-14.95-21.89
	c-4.14-6.2-6.84-4.29-11.04,1.11c-8.95,11.53-17.5,23.38-26.24,35.08c-3.19,4.27-2.94,8.03,0.25,12.54
	c7.5,10.59,14.76,21.35,21.74,32.29c5.47,8.58,11.15,15.13,22.14,14.97C1597.02,1373.07,1605.12,1373.05,1613.23,1373.07z"/>
<path class="st2" d="M1363.02,1150.49c8.53,0,17.07,0.09,25.6-0.04c4.1-0.06,6.38,1.12,6.3,5.78c-0.23,12.65-0.19,25.31-0.22,37.97
	c-0.01,4.84-1.48,7.82-7.22,7.6c-15.82-0.59-31.65-0.89-47.48-1.22c-9.21-0.19-9.89-0.85-9.87-10.14
	c0.03-9.98,0.02-19.96-0.02-29.94c-0.04-9.9,0-9.99,10.22-10.03c7.56-0.04,15.12-0.01,22.68-0.01
	C1363.02,1150.47,1363.02,1150.48,1363.02,1150.49z"/>
<g class="st4">
	<path class="st5" d="M470.49,1068.37c8.92,0,17.85,0.13,26.77-0.05c4.58-0.09,7.83,1.58,10.3,5.42
		c8.18,12.67,16.57,25.2,24.72,37.88c4.23,6.59,1.7,136.88-2.88,143.07c-8.42,11.37-16.91,22.69-25.21,34.15
		c-2.44,3.37-3.86,2.81-6-0.26c-16.99-24.35-31.87-174.72-49.01-198.96c-3.03-4.28-6.65-8.15-9.63-12.46
		c-1.35-1.94-1.79-4.51-2.65-6.79c2.27-0.64,4.54-1.78,6.82-1.83c8.92-0.22,17.84-0.09,26.77-0.09
		C470.49,1068.42,470.49,1068.39,470.49,1068.37z"/>
	<path class="st5" d="M615.61,1068.37c-8.92,0-17.85,0.13-26.77-0.05c-4.58-0.09-7.83,1.58-10.3,5.42
		c-8.18,12.67-16.57,25.2-24.72,37.88c-4.23,6.59-1.7,136.88,2.88,143.07c8.42,11.37,16.91,22.69,25.21,34.15
		c2.44,3.37,3.86,2.81,6-0.26c16.99-24.35,31.87-174.72,49.01-198.96c3.03-4.28,6.65-8.15,9.63-12.46c1.35-1.94,1.79-4.51,2.65-6.79
		c-2.27-0.64-4.54-1.78-6.82-1.83c-8.92-0.22-17.84-0.09-26.77-0.09C615.61,1068.42,615.61,1068.39,615.61,1068.37z"/>
	<g class="st6">
		<path class="st7" d="M759.14,1068.26c16.2-0.1,32.4,0.02,48.59-0.39c8.53-0.21,14.62,2.73,18.97,10.24
			c16.81,29,33.8,57.89,50.81,86.76c4.02,6.82,3.79,13.35-0.08,20.12c-16.46,28.87-32.89,57.75-49.2,86.71
			c-4.2,7.45-10.16,10.79-18.74,10.8c-33.24,0.02-66.49,0.27-99.73,0.6c-7.89,0.08-13.65-2.97-17.6-9.75
			c-17.03-29.2-34.1-58.37-51.15-87.56c-3.6-6.17-3.76-12.53-0.29-18.67c16.91-29.92,33.91-59.79,50.97-89.62
			c3.53-6.18,9.09-8.99,16.29-8.98C725.04,1068.55,742.09,1068.36,759.14,1068.26z M758.92,1106.64
			c-37.59-0.15-68.73,31.19-68.64,69.08c0.09,37.87,30.98,68.59,69.08,68.7c37.96,0.11,68.8-30.66,68.87-68.69
			C828.28,1137.18,797.81,1106.8,758.92,1106.64z"/>
	</g>
</g>
<g>
	<path class="st2" d="M554.64,1291.54L554.64,1291.54c-0.9,0-1.72-0.51-2.13-1.31L443.74,1075.3c-0.42-0.82-0.32-1.82,0.25-2.54
		l0.41-0.53c0.45-0.58,1.15-0.92,1.88-0.92h55.44c0.94,0,1.79,0.55,2.17,1.4l49.73,109.19c0.85,1.87,3.51,1.86,4.35-0.01
		l48.89-109.17c0.38-0.86,1.24-1.41,2.18-1.41h54.23c0.75,0,1.46,0.35,1.91,0.96l0.16,0.21c0.54,0.73,0.63,1.7,0.22,2.51
		l-108.78,215.25C556.37,1291.04,555.54,1291.54,554.64,1291.54z"/>
	<path class="st2" d="M878.53,1179.96c0,31.32-10.42,57.75-31.27,79.28c-20.85,21.54-47.91,32.3-81.19,32.3
		c-33.28,0-60.2-10.76-80.75-32.3c-20.56-21.53-30.83-47.96-30.83-79.28c0-31.32,10.47-57.85,31.42-79.58
		c20.95-21.73,48.06-32.59,81.34-32.59c33.28,0,60.15,10.82,80.61,32.45C868.3,1121.87,878.53,1148.44,878.53,1179.96z
		 M823.33,1180.25c0-17.42-5.48-31.52-16.44-42.28c-10.97-10.76-24.47-16.15-40.52-16.15c-16.05,0-29.51,5.39-40.38,16.15
		c-10.86,10.77-16.3,24.86-16.3,42.28c0,16.25,5.53,29.86,16.59,40.82c11.06,10.97,24.42,16.44,40.08,16.44
		c15.66,0,29.07-5.48,40.23-16.44C817.75,1210.11,823.33,1196.5,823.33,1180.25z"/>
</g>
</svg>
